<?xml version="1.0" standalone="no"?>
<!DOCTYPE svg PUBLIC "-//W3C//DTD SVG 20010904//EN"
 "http://www.w3.org/TR/2001/REC-SVG-20010904/DTD/svg10.dtd">
<svg version="1.0" xmlns="http://www.w3.org/2000/svg"
 width="79.000000pt" height="79.000000pt" viewBox="0 0 79.000000 79.000000"
 preserveAspectRatio="xMidYMid meet">
<metadata>
Created by potrace 1.14, written by Peter Selinger 2001-2017
</metadata>
<g transform="translate(0.000000,79.000000) scale(0.100000,-0.100000)"
fill="#000000" stroke="none">
<path d="M217 612 l-178 -179 36 -36 c20 -20 34 -41 31 -46 -3 -5 2 -8 12 -7
9 0 16 -5 14 -12 -1 -8 2 -11 7 -8 5 3 14 0 20 -8 7 -8 8 -16 4 -18 -4 -3 -3
-4 4 -2 10 2 80 -66 76 -75 -1 -2 -7 -8 -15 -12 -10 -7 -9 -9 5 -9 9 0 19 1
22 3 2 1 11 -7 20 -18 9 -11 13 -13 9 -5 -5 10 -1 9 14 -4 12 -10 20 -22 19
-26 -1 -4 3 -9 8 -10 16 -2 55 -42 50 -51 -3 -4 2 -6 11 -5 8 1 19 8 24 15 4
8 13 10 19 7 7 -5 10 -2 9 6 -2 7 5 12 15 12 15 -2 16 1 5 14 -11 13 -10 15 4
9 10 -3 20 -1 24 5 4 7 3 8 -4 4 -23 -14 -12 6 19 35 17 16 36 26 43 22 6 -3
8 -2 3 2 -9 10 32 56 44 49 5 -3 7 1 4 8 -3 7 8 22 23 32 16 11 37 32 48 48
10 15 25 26 32 23 7 -3 11 -1 8 4 -3 4 4 17 14 29 11 12 20 25 20 29 0 5 -34
42 -75 83 -57 57 -75 81 -75 102 0 36 -32 68 -67 68 -19 0 -42 15 -78 50 l-50
50 -178 -178z"/>
</g>
</svg>
